<?xml version="1.0" encoding="UTF-8" standalone="no"?>
<!-- Generator: Adobe Illustrator 25.0.1, SVG Export Plug-In . SVG Version: 6.00 Build 0)  -->

<svg
   version="1.0"
   id="Layer_1"
   x="0px"
   y="0px"
   viewBox="0 0 68 40.200001"
   xml:space="preserve"
   sodipodi:docname="Warframe.svg"
   width="68"
   height="40.200001"
   inkscape:version="1.3 (0e150ed6c4, 2023-07-21)"
   xmlns:inkscape="http://www.inkscape.org/namespaces/inkscape"
   xmlns:sodipodi="http://sodipodi.sourceforge.net/DTD/sodipodi-0.dtd"
   xmlns="http://www.w3.org/2000/svg"
   xmlns:svg="http://www.w3.org/2000/svg"><defs
   id="defs13" /><sodipodi:namedview
   id="namedview13"
   pagecolor="#ffffff"
   bordercolor="#000000"
   borderopacity="0.25"
   inkscape:showpageshadow="2"
   inkscape:pageopacity="0.0"
   inkscape:pagecheckerboard="0"
   inkscape:deskcolor="#d1d1d1"
   inkscape:zoom="3.9043062"
   inkscape:cx="31.375613"
   inkscape:cy="13.0625"
   inkscape:window-width="1866"
   inkscape:window-height="1016"
   inkscape:window-x="54"
   inkscape:window-y="27"
   inkscape:window-maximized="1"
   inkscape:current-layer="Layer_1" />&#10;<style
   type="text/css"
   id="style1">&#10;	.st0{fill:#212325;}&#10;	.st1{fill:#044C6A;}&#10;	.st2{fill:url(#SVGID_1_);}&#10;	.st3{fill:none;}&#10;</style>&#10;&#10;&#10;<path
   class="st1"
   d="m 12,38.6 c -2.7,-3 -5.2,-11 -5.2,-11 1.9,-1.3 4,-2.4 6.1,-3.3 C 12.5,23.2 12.2,22 12,20.9 10.9,21.6 9.8,22.2 8.6,22.7 3,25.5 0,24.1 0,24.1 l 0.7,0.3 c 1,0.6 3,2.4 4.4,6 l 4.1,8.8 v 0 l 5,1 C 13.4,39.9 12.6,39.3 12,38.6 Z"
   id="path3" />&#10;<path
   class="st1"
   d="M 0.7,24.4 0,24.1 c 0.3,0.1 0.5,0.2 0.7,0.3 z"
   id="path4" />&#10;<path
   class="st1"
   d="m 16.5,36.6 c -1.6,-1.8 -3.4,-6.3 -3.4,-6.3 0,0 0.9,-0.5 2.1,-1.1 -0.4,-0.5 -0.8,-1.1 -1.2,-1.6 -3.2,1.5 -4.8,0.8 -4.8,0.8 l 0.3,0.2 c 0.5,0.3 1.4,1.1 2.5,3.5 l 2.2,4.7 0.1,0.1 3.2,0.7 c -0.3,-0.3 -0.7,-0.7 -1,-1 z"
   id="path5" />&#10;<path
   class="st1"
   d="M 9.5,28.5 9.2,28.4 c 0.1,0 0.2,0 0.3,0.1 z"
   id="path6" />&#10;<path
   class="st1"
   d="m 67.9,24.1 c 0,0 -3,1.3 -8.6,-1.4 -1.2,-0.5 -2.3,-1.1 -3.4,-1.8 -0.2,1.2 -0.5,2.3 -0.9,3.4 2.1,1 4.1,2.1 6,3.3 0,0 -2.5,8 -5.2,11 -0.7,0.7 -1.4,1.2 -2.3,1.6 l 5,-1 v 0 l 4.1,-8.8 C 64.1,26.8 66,25 67,24.4 Z"
   id="path7" />&#10;<linearGradient
   id="SVGID_1_"
   gradientUnits="userSpaceOnUse"
   x1="332.08499"
   y1="557.69"
   x2="332.08499"
   y2="613.79999"
   gradientTransform="matrix(1,0,0,-1,-264.5,597.3)">&#10;	<stop
   offset="0.3"
   style="stop-color:#076286"
   id="stop7" />&#10;	<stop
   offset="1"
   style="stop-color:#003147"
   id="stop8" />&#10;</linearGradient>&#10;<path
   class="st2"
   d="M 67.3,24.4 68,24.1 c -0.3,0.1 -0.5,0.2 -0.7,0.3 z"
   id="path8"
   style="fill:url(#SVGID_1_)" />&#10;<path
   class="st1"
   d="m 58.7,28.4 c 0,0 -1.6,0.7 -4.8,-0.8 -0.4,0.6 -0.8,1.1 -1.2,1.6 1.2,0.6 2.1,1.1 2.1,1.1 0,0 -1.9,4.6 -3.4,6.3 -0.3,0.4 -0.7,0.7 -1.1,1 l 3.2,-0.7 0.1,-0.1 2.2,-4.7 c 1.1,-2.4 2,-3.2 2.5,-3.5 z"
   id="path9" />&#10;<path
   class="st1"
   d="m 58.5,28.5 0.3,-0.1 c -0.1,0 -0.2,0 -0.3,0.1 z"
   id="path10" />&#10;<path
   class="st1"
   d="M 53.1,15.9 C 53.1,15.9 34.3,6.6 33.9,0 33.5,6.5 14.7,15.9 14.7,15.9 13.6,22.7 16,29.6 21,34.4 l 0.2,-0.1 C 16.6,29.3 15.3,23.8 19,20 l 14.9,-8.8 v 0 L 48.8,20 c 3.7,3.8 2.4,9.3 -2.2,14.3 l 0.2,0.1 c 5,-4.8 7.4,-11.7 6.3,-18.5 z"
   id="path11" />&#10;<path
   class="st1"
   d="m 46.5,24.5 c 0,0 -12.2,-6.1 -12.6,-10.3 v 0 c -0.4,4.3 -12.6,10.3 -12.6,10.3 -0.7,4.4 0.8,8.9 4.1,12 l 0.2,-0.1 c -3,-3.3 -3.9,-6.9 -1.5,-9.4 l 9.8,-5.8 9.8,5.8 c 2.4,2.5 1.6,6.1 -1.5,9.4 l 0.2,0.1 c 3.2,-3.1 4.8,-7.6 4.1,-12 z"
   id="path12" />&#10;<path
   class="st1"
   d="m 42.3,30.6 c 0,0 -8,-4 -8.3,-6.8 v 0 c -0.3,2.8 -8.3,6.8 -8.3,6.8 -0.5,3 0.6,6 2.7,8 h 0.1 c -2,-2.2 -2.6,-4.6 -1,-6.2 l 6.5,-3.8 6.5,3.8 c 1.6,1.6 1,4 -1,6.2 h 0.1 c 2,-2 3.1,-5 2.7,-8 z"
   id="path13" />&#10;<rect
   x="-65.5"
   y="-4.8000002"
   class="st3"
   width="194"
   height="77"
   id="rect13" />&#10;</svg>
